<svg width="35" height="35" viewBox="0 0 35 35" fill="none" stroke="black" xmlns="http://www.w3.org/2000/svg">
<path d="M30.625 30.625L24.2915 24.2915M24.2915 24.2915C25.3748 23.2081 26.2342 21.9219 26.8205 20.5064C27.4069 19.0909 27.7086 17.5738 27.7086 16.0417C27.7086 14.5095 27.4069 12.9924 26.8205 11.5769C26.2342 10.1614 25.3748 8.87525 24.2915 7.79187C23.2081 6.70849 21.9219 5.84911 20.5064 5.26279C19.0909 4.67647 17.5738 4.37469 16.0417 4.37469C14.5095 4.37469 12.9924 4.67647 11.5769 5.26279C10.1614 5.84911 8.87525 6.70849 7.79187 7.79187C5.60389 9.97985 4.37469 12.9474 4.37469 16.0417C4.37469 19.1359 5.60389 22.1035 7.79187 24.2915C9.97985 26.4794 12.9474 27.7086 16.0417 27.7086C19.1359 27.7086 22.1035 26.4794 24.2915 24.2915Z"  stroke-width="2" stroke-linecap="round" stroke-linejoin="round"/>
</svg>
